<svg width="134" height="40" viewBox="0 0 134 40" fill="none" xmlns="http://www.w3.org/2000/svg">
<path d="M44.9944 13.8516H48.3099L53.5357 25.6498H49.868L48.9956 23.5575H44.2537L43.4156 25.6498H39.8311L44.9944 13.8516ZM46.6366 17.7704L45.2924 20.9999H47.9975L46.6366 17.7704Z" fill="#646464"/>
<path d="M54.8047 13.8516H64.9563V16.8995H54.8047V13.8516ZM54.8047 18.2267H64.9563V21.2747H54.8047V18.2267ZM54.8047 22.6019H64.9563V25.6498H54.8047V22.6019Z" fill="#646464"/>
<path d="M77.8031 23.2837L78.9149 24.2646L77.2873 26.152L76.0311 25.0452C74.9991 25.7308 73.7515 26.1317 72.4078 26.1317C68.8532 26.1317 65.9717 23.3265 65.9717 19.8661C65.9717 16.4058 68.8532 13.6006 72.4078 13.6006C75.9624 13.6006 78.844 16.4058 78.844 19.8661C78.844 21.127 78.4614 22.3008 77.8031 23.2837ZM75.1845 20.9732C75.3393 20.6014 75.4248 20.1933 75.4248 19.7651C75.4248 18.0349 74.029 16.6323 72.3073 16.6323C70.5855 16.6323 69.1898 18.0349 69.1898 19.7651C69.1898 21.4952 70.5855 22.8978 72.3073 22.8978C72.6835 22.8978 73.0442 22.8309 73.3782 22.7081L71.9158 21.4198L73.5655 19.5446L75.1845 20.9732Z" fill="#646464"/>
<path d="M83.8698 14.3545V21.2282C83.8698 22.4192 84.8667 23.3921 86.1142 23.4183C87.3267 23.4439 88.3313 22.5264 88.3581 21.369C88.3584 21.3536 88.3586 21.3381 88.3586 21.3227V14.3545H91.858C91.8516 17.8303 91.8516 20.1952 91.858 21.4492C91.858 25.0682 88.9133 26.4869 85.8438 26.4001C82.7742 26.3132 80.4375 24.6191 80.4375 21.4492C80.4375 20.0778 80.4375 17.7129 80.4375 14.3545H83.8698Z" fill="#646464"/>
<path d="M97.7825 13.8516H101.098L106.324 25.6498H102.656L101.784 23.5575H97.0418L96.2036 25.6498H92.6191L97.7825 13.8516ZM99.4246 17.7704L98.0805 20.9999H100.786L99.4246 17.7704Z" fill="#646464"/>
<path d="M117.999 14.3545V26.1528H121.298V14.3545H117.999Z" fill="#646464"/>
<path d="M110.49 14.3545V23.2925H116.474V26.1528H107.084V14.3545H110.49Z" fill="#646464"/>
<path d="M124.454 22.158L122.566 24.402C125.622 27.2716 133.298 27.4291 133.225 22.3889C133.27 20.1659 131.323 19.3281 129.505 18.8357C128.754 18.6322 127.609 18.4554 126.991 18.1127C126.668 17.9336 126.573 17.7326 126.573 17.4085C126.573 15.9177 130.177 16.943 131.184 17.8536L132.9 15.4908C131.367 14.2982 129.611 13.7563 127.631 13.8652C123.844 13.8676 123.127 16.5973 123.127 17.7481C123.124 18.4688 123.261 19.4448 124.205 20.1763C124.775 20.6243 125.814 21.0643 126.899 21.3764C127.64 21.5896 128.396 21.7206 128.94 21.9218C129.558 22.1499 129.795 22.5521 129.802 22.6945C129.851 23.6744 128.372 23.8713 126.35 23.2237C125.918 23.0852 125.286 22.7299 124.454 22.158Z" fill="#646464"/>
<path d="M26.2511 14.9979L8.75098 4.99851L17.4998 0L35.0023 9.9994L26.2511 14.9979Z" fill="#00CBFF"/>
<path d="M8.75098 24.9993L35.0023 9.99902V19.9984L17.4998 29.9978L8.75098 24.9993Z" fill="#3345AF"/>
<path d="M8.75098 34.9993L35.0023 19.999V29.9984L17.4998 40.0002L8.75098 34.9993Z" fill="#486BFF"/>
<path d="M0 9.99894L8.75125 4.99805L17.5001 9.99894L8.75125 14.9974L0 9.99894Z" fill="#0090E8"/>
<path d="M0 19.9984V9.99902L8.75125 14.9975L17.5001 19.9984L8.75125 24.9993L0 19.9984Z" fill="#00CBFF"/>
<path d="M0 29.9984V19.999L8.75125 24.9999L17.5001 29.9984L8.75125 34.9993L0 29.9984Z" fill="#0090E8"/>
</svg>
